HIERARCHY
ROOT Hips
{
    OFFSET   0.000000   0.000000   0.000000
    CHANNELS 6 Xposition Yposition Zposition Zrotation Xrotation Yrotation
    JOINT Chest
    {
        OFFSET   0.000000   8.007230   0.000000
        CHANNELS 3 Zrotation Xrotation Yrotation
        JOINT Chest2
        {
            OFFSET   0.000000  22.077100   0.000000
            CHANNELS 3 Zrotation Xrotation Yrotation
            JOINT Neck
            {
                OFFSET   0.000000  23.254800  -0.000021
                CHANNELS 3 Zrotation Xrotation Yrotation
                JOINT Head
                {
                    OFFSET   0.000000  14.370000   1.956610
                    CHANNELS 3 Zrotation Xrotation Yrotation
                    End Site
                    {
                        OFFSET   0.000000  19.566000   0.000000
                    }
                }
            }
            JOINT LeftCollar
            {
                OFFSET   3.911900  19.017000  -0.467063
                CHANNELS 3 Zrotation Xrotation Yrotation
                JOINT LeftShoulder
                {
                    OFFSET  10.383700   0.000000   0.000000
                    CHANNELS 3 Zrotation Xrotation Yrotation
                    JOINT LeftElbow
                    {
                        OFFSET  26.662100   0.001529   0.000325
                        CHANNELS 3 Zrotation Xrotation Yrotation
                        JOINT LeftWrist
                        {
                            OFFSET  28.869000  -0.000011  -0.000096
                            CHANNELS 3 Zrotation Xrotation Yrotation
                            JOINT LeftFinger0
                            {
                                OFFSET   2.044650  -2.323460   3.252850
                                CHANNELS 3 Zrotation Xrotation Yrotation
                                JOINT LeftFinger01
                                {
                                    OFFSET   3.088130   0.000000   0.000000
                                    CHANNELS 3 Zrotation Xrotation Yrotation
                                    JOINT LeftFinger02
                                    {
                                        OFFSET   2.639460   0.000000   0.000000
                                        CHANNELS 3 Zrotation Xrotation Yrotation
                                        End Site
                                        {
                                            OFFSET   2.582190   0.000000   0.000000
                                        }
                                    }
                                }
                            }
                            JOINT LeftFinger1
                            {
                                OFFSET   8.364480   0.000000   3.252850
                                CHANNELS 3 Zrotation Xrotation Yrotation
                                JOINT LeftFinger11
                                {
                                    OFFSET   4.646930   0.000000   0.000000
                                    CHANNELS 3 Zrotation Xrotation Yrotation
                                    JOINT LeftFinger12
                                    {
                                        OFFSET   2.323460   0.000000   0.000000
                                        CHANNELS 3 Zrotation Xrotation Yrotation
                                        End Site
                                        {
                                            OFFSET   2.273050   0.000000   0.000000
                                        }
                                    }
                                }
                            }
                            JOINT LeftFinger2
                            {
                                OFFSET   8.364480   0.000016   1.078090
                                CHANNELS 3 Zrotation Xrotation Yrotation
                                JOINT LeftFinger21
                                {
                                    OFFSET   5.111620   0.000000   0.000000
                                    CHANNELS 3 Zrotation Xrotation Yrotation
                                    JOINT LeftFinger22
                                    {
                                        OFFSET   2.788160   0.000017   0.000000
                                        CHANNELS 3 Zrotation Xrotation Yrotation
                                        End Site
                                        {
                                            OFFSET   2.727660   0.000000   0.000000
                                        }
                                    }
                                }
                            }
                            JOINT LeftFinger3
                            {
                                OFFSET   7.899780   0.000015  -1.078090
                                CHANNELS 3 Zrotation Xrotation Yrotation
                                JOINT LeftFinger31
                                {
                                    OFFSET   4.646920   0.000000   0.000000
                                    CHANNELS 3 Zrotation Xrotation Yrotation
                                    JOINT LeftFinger32
                                    {
                                        OFFSET   2.323470   0.000000   0.000000
                                        CHANNELS 3 Zrotation Xrotation Yrotation
                                        End Site
                                        {
                                            OFFSET   2.273050   0.000000   0.000000
                                        }
                                    }
                                }
                            }
                            JOINT LeftFinger4
                            {
                                OFFSET   7.435090   0.000000  -3.252850
                                CHANNELS 3 Zrotation Xrotation Yrotation
                                JOINT LeftFinger41
                                {
                                    OFFSET   3.717550   0.000000   0.000000
                                    CHANNELS 3 Zrotation Xrotation Yrotation
                                    JOINT LeftFinger42
                                    {
                                        OFFSET   1.858760   0.000000   0.000000
                                        CHANNELS 3 Zrotation Xrotation Yrotation
                                        End Site
                                        {
                                            OFFSET   1.818440   0.000000   0.000000
                                        }
                                    }
                                }
                            }
                        }
                    }
                }
            }
            JOINT RightCollar
            {
                OFFSET  -3.911900  19.017000  -0.467062
                CHANNELS 3 Zrotation Xrotation Yrotation
                JOINT RightShoulder
                {
                    OFFSET -10.383700   0.000015   0.000000
                    CHANNELS 3 Zrotation Xrotation Yrotation
                    JOINT RightElbow
                    {
                        OFFSET -26.662100   0.001341   0.000385
                        CHANNELS 3 Zrotation Xrotation Yrotation
                        JOINT RightWrist
                        {
                            OFFSET -28.869000   0.000025  -0.000080
                            CHANNELS 3 Zrotation Xrotation Yrotation
                            JOINT RightFinger0
                            {
                                OFFSET  -2.044650  -2.323490   3.252850
                                CHANNELS 3 Zrotation Xrotation Yrotation
                                JOINT RightFinger01
                                {
                                    OFFSET  -3.088130   0.000000   0.000000
                                    CHANNELS 3 Zrotation Xrotation Yrotation
                                    JOINT RightFinger02
                                    {
                                        OFFSET  -2.639460   0.000000   0.000000
                                        CHANNELS 3 Zrotation Xrotation Yrotation
                                        End Site
                                        {
                                            OFFSET  -2.582190   0.000000   0.000000
                                        }
                                    }
                                }
                            }
                            JOINT RightFinger1
                            {
                                OFFSET  -8.364480   0.000000   3.252850
                                CHANNELS 3 Zrotation Xrotation Yrotation
                                JOINT RightFinger11
                                {
                                    OFFSET  -4.646930   0.000000   0.000000
                                    CHANNELS 3 Zrotation Xrotation Yrotation
                                    JOINT RightFinger12
                                    {
                                        OFFSET  -2.323470   0.000000   0.000000
                                        CHANNELS 3 Zrotation Xrotation Yrotation
                                        End Site
                                        {
                                            OFFSET  -2.273050   0.000000   0.000000
                                        }
                                    }
                                }
                            }
                            JOINT RightFinger2
                            {
                                OFFSET  -8.364480   0.000000   1.078090
                                CHANNELS 3 Zrotation Xrotation Yrotation
                                JOINT RightFinger21
                                {
                                    OFFSET  -5.111610   0.000000   0.000000
                                    CHANNELS 3 Zrotation Xrotation Yrotation
                                    JOINT RightFinger22
                                    {
                                        OFFSET  -2.788160   0.000000   0.000000
                                        CHANNELS 3 Zrotation Xrotation Yrotation
                                        End Site
                                        {
                                            OFFSET  -2.727660   0.000000   0.000000
                                        }
                                    }
                                }
                            }
                            JOINT RightFinger3
                            {
                                OFFSET  -7.899780   0.000000  -1.078090
                                CHANNELS 3 Zrotation Xrotation Yrotation
                                JOINT RightFinger31
                                {
                                    OFFSET  -4.646920   0.000000   0.000000
                                    CHANNELS 3 Zrotation Xrotation Yrotation
                                    JOINT RightFinger32
                                    {
                                        OFFSET  -2.323470   0.000000   0.000000
                                        CHANNELS 3 Zrotation Xrotation Yrotation
                                        End Site
                                        {
                                            OFFSET  -2.273050   0.000000   0.000000
                                        }
                                    }
                                }
                            }
                            JOINT RightFinger4
                            {
                                OFFSET  -7.435090   0.000000  -3.252850
                                CHANNELS 3 Zrotation Xrotation Yrotation
                                JOINT RightFinger41
                                {
                                    OFFSET  -3.717550   0.000000   0.000000
                                    CHANNELS 3 Zrotation Xrotation Yrotation
                                    JOINT RightFinger42
                                    {
                                        OFFSET  -1.858770   0.000000   0.000000
                                        CHANNELS 3 Zrotation Xrotation Yrotation
                                        End Site
                                        {
                                            OFFSET  -1.818440   0.000000   0.000000
                                        }
                                    }
                                }
                            }
                        }
                    }
                }
            }
        }
    }
    JOINT LeftHip
    {
        OFFSET   9.783010   0.000000   0.000000
        CHANNELS 3 Zrotation Xrotation Yrotation
        JOINT LeftKnee
        {
            OFFSET   0.000070 -41.789100   0.000028
            CHANNELS 3 Zrotation Xrotation Yrotation
            JOINT LeftAnkle
            {
                OFFSET   0.000087 -41.133200  -0.000100
                CHANNELS 3 Zrotation Xrotation Yrotation
                JOINT LeftToe
                {
                    OFFSET   0.000000  -6.358960  14.674500
                    CHANNELS 3 Zrotation Xrotation Yrotation
                    End Site
                    {
                        OFFSET   0.000000   0.000000   3.913200
                    }
                }
            }
        }
    }
    JOINT RightHip
    {
        OFFSET  -9.783020   0.000000   0.000000
        CHANNELS 3 Zrotation Xrotation Yrotation
        JOINT RightKnee
        {
            OFFSET   0.000044 -41.789100  -0.000870
            CHANNELS 3 Zrotation Xrotation Yrotation
            JOINT RightAnkle
            {
                OFFSET  -0.000090 -41.133200  -0.000245
                CHANNELS 3 Zrotation Xrotation Yrotation
                JOINT RightToe
                {
                    OFFSET   0.000000  -6.358960  14.674500
                    CHANNELS 3 Zrotation Xrotation Yrotation
                    End Site
                    {
                        OFFSET   0.000000   0.000000   3.913200
                    }
                }
            }
        }
    }
}
MOTION
Frames: 5
Frame Time:   0.016667
  0.168817  90.097400  -1.428550  -1.223920  -0.130675  -1.285690   0.108233   0.300119  -0.305562   0.218071   0.599648  -0.611696   1.775780   1.008140  -0.028612   2.909980   2.039110   5.228650  -2.227850   0.279156   5.343380 -72.908800  17.353600   4.051360  -3.761150  -4.586200 -14.444200  17.717500  -3.991150  14.886400  38.202800  20.024900 -58.613600 -21.312500  -0.006407   0.002607  -5.656270  -0.001241   0.000714 -27.757400   6.890490 -12.841200 -23.345800  -0.006315   0.000395 -16.342000  -0.004385  -0.000297 -28.227600   2.527800  -4.696800 -34.483200  -0.001999   0.009788 -22.965800  -0.001352   0.000098 -25.444800   0.812751  -1.707230 -25.456900   0.000264   0.001287 -16.954300  -0.002567  -0.004095 -27.672000   0.878409  -1.674390 -41.527100  -0.003279  -0.000554 -27.657100  -0.005603  -0.002863   6.784610   2.898940   4.379070  71.458100   6.924820  -2.903920   1.922150  -4.494980  10.397800 -18.044500 -13.550100  -1.533280 -35.272700  24.300700  63.149700  28.652400  -0.006535  -0.001914   9.326180  -0.000163  -0.009172  31.198200   3.897000   6.398480  25.704100  -0.000711   0.005553  17.992900   0.004724   0.004618  27.852800  -0.567193  -1.070480  31.120700   0.013859  -0.002549  20.726300   0.006389  -0.002660  28.169800  -2.136270  -3.981800  33.752300  -0.003682  -0.004962  22.479000  -0.000634  -0.002931  36.242000  -3.463660  -4.711700  54.576800   0.000722   0.002866  36.348200   0.008886  -0.007060   0.558809   0.280554   1.072760   0.824565   1.468870   9.653070  -5.172270  -3.980620   4.506240   0.000000   0.000000   0.000000   1.911220  -0.174427  -5.151810   0.510011   3.488220  -7.466740 -11.105200   0.084385   0.851283   0.000000   0.000000  -0.000000
  0.160676  90.097400  -1.438060  -1.224130  -0.140444  -1.289980   0.105401   0.310657  -0.302151   0.212441   0.620743  -0.604880   1.775820   0.997262  -0.028604   2.910630   2.017100   5.246330  -2.227330   0.272887   5.339070 -72.887500  17.355000   4.035420  -3.766600  -4.588040 -14.433700  17.702400  -3.966130  14.900300  38.180000  20.008500 -58.602900 -21.338600  -0.006407   0.002615  -5.669310  -0.001242   0.000719 -27.830800   6.887880 -12.798500 -23.403400  -0.006321   0.000394 -16.382400  -0.004385  -0.000296 -28.238600   2.509370  -4.660620 -34.566800  -0.001993   0.009791 -23.021500  -0.001348   0.000101 -25.515100   0.794078  -1.663180 -25.526600   0.000267   0.001284 -17.000700  -0.002564  -0.004096 -27.731200   0.857788  -1.631240 -41.615000  -0.003274  -0.000556 -27.715600  -0.005601  -0.002857   6.786030   2.895160   4.380870  71.452600   6.943330  -2.888890   1.923910  -4.502600  10.405500 -18.054100 -13.568400  -1.508970 -35.280800  24.314800  63.147200  28.652400  -0.006538  -0.001894   9.326180  -0.000156  -0.009161  31.205500   3.897230   6.397950  25.710000  -0.000724   0.005547  17.997100   0.004720   0.004612  27.856900  -0.566794  -1.070480  31.146300   0.013859  -0.002533  20.743400   0.006389  -0.002640  28.175100  -2.131060  -3.971240  33.792400  -0.003683  -0.004951  22.505700  -0.000634  -0.002924  36.263800  -3.462150  -4.704830  54.609100   0.000721   0.002839  36.369700   0.008900  -0.007053   0.564530   0.273688   1.072640   0.823819   1.476380   9.652840  -5.176470  -3.974810   4.512790   0.000000   0.000000   0.000000   1.915610  -0.173305  -5.152180   0.510742   3.492490  -7.466840 -11.105100   0.084973   0.858365  -0.000000   0.000000  -0.000000
  0.147259  90.097400  -1.454850  -1.224490  -0.157683  -1.297710   0.100174   0.330288  -0.298741   0.202069   0.660039  -0.598066   1.775950   0.978447  -0.028597   2.911820   1.978670   5.276850  -2.226420   0.262456   5.332610 -72.849900  17.362900   4.008880  -3.776960  -4.599810 -14.413800  17.672900  -3.940990  14.920800  38.157300  19.992000 -58.592200 -21.378700  -0.006404   0.002626  -5.689340  -0.001248   0.000738 -27.936000   6.879170 -12.728300 -23.485200  -0.006333   0.000392 -16.439700  -0.004385  -0.000295 -28.255500   2.481150  -4.605210 -34.697300  -0.001978   0.009801 -23.108400  -0.001336   0.000109 -25.614600   0.765375  -1.596120 -25.625200   0.000277   0.001279 -17.066400  -0.002553  -0.004098 -27.815400   0.826153  -1.565530 -41.740000  -0.003260  -0.000562 -27.798800  -0.005593  -0.002841   6.789460   2.888470   4.386410  71.441000   6.980180  -2.862150   1.927760  -4.515790  10.426300 -18.060400 -13.602200  -1.468810 -35.295200  24.335300  63.147100  28.652400  -0.006546  -0.001855   9.326180  -0.000143  -0.009136  31.217500   3.898600   6.397430  25.719800  -0.000756   0.005532  18.003900   0.004717   0.004596  27.863800  -0.566395  -1.070480  31.186500   0.013857  -0.002493  20.770200   0.006389  -0.002591  28.184300  -2.121940  -3.952800  33.861200  -0.003684  -0.004923  22.551600  -0.000634  -0.002907  36.298000  -3.460640  -4.697960  54.660000   0.000720   0.002775  36.403600   0.008937  -0.007036   0.573173   0.266821   1.072510   0.824130   1.487360   9.652630  -5.183410  -3.965690   4.522360   0.000000   0.000000   0.000000   1.922620  -0.171786  -5.152560   0.511840   3.499520  -7.467030 -11.105000   0.087878   0.869825  -0.000000   0.000000   0.000000
  0.136803  90.097400  -1.470360  -1.224800  -0.173643  -1.304350   0.094806   0.350484  -0.299657   0.191448   0.700463  -0.599905   1.776300   0.960536  -0.029236   2.913080   1.941040   5.304850  -2.225450   0.253735   5.328320 -72.815400  17.396100   3.987320  -3.790410  -4.639960 -14.392000  17.635900  -3.945380  14.932500  38.142700  19.992100 -58.609300 -21.404800  -0.006398   0.002632  -5.702380  -0.001268   0.000780 -27.982300   6.857370 -12.661400 -23.517600  -0.006350   0.000390 -16.462300  -0.004387  -0.000294 -28.266400   2.461570  -4.567750 -34.781200  -0.001954   0.009818 -23.164300  -0.001318   0.000123 -25.654300   0.743938  -1.548110 -25.664400   0.000293   0.001271 -17.092500  -0.002534  -0.004100 -27.849700   0.802723  -1.518460 -41.790400  -0.003237  -0.000572 -27.832400  -0.005580  -0.002814   6.796140   2.881280   4.397110  71.426100   7.024800  -2.836970   1.934160  -4.528620  10.458300 -18.048700 -13.638500  -1.434640 -35.304500  24.344600  63.153200  28.642500  -0.006555  -0.001809   9.321220  -0.000136  -0.009099  31.228500   3.902910   6.402690  25.729200  -0.000807   0.005508  18.010500   0.004717   0.004570  27.870500  -0.568223  -1.074060  31.219100   0.013852  -0.002431  20.791900   0.006390  -0.002516  28.193900  -2.114110  -3.936830  33.934100  -0.003683  -0.004879  22.600100  -0.000636  -0.002883  36.325600  -3.465920  -4.701440  54.701900   0.000723   0.002679  36.431500   0.008997  -0.007007   0.578026   0.268696   1.073190   0.828254   1.493700   9.652680  -5.188750  -3.959320   4.526330  -0.000000   0.000000   0.000000   1.927740  -0.171520  -5.150490   0.512152   3.506250  -7.467260 -11.105100   0.094323   0.878183   0.000000   0.000000  -0.000000
  0.126606  90.097300  -1.486660  -1.225120  -0.190437  -1.313130   0.089067   0.372864  -0.301338   0.180101   0.745253  -0.603275   1.776550   0.944642  -0.029877   2.914240   1.907780   5.331370  -2.224570   0.245858   5.326180 -72.780500  17.441600   3.967280  -3.806910  -4.691390 -14.370300  17.592800  -3.949890  14.937700  38.121800  19.992100 -58.635200 -21.424200  -0.006387   0.002636  -5.712070  -0.001296   0.000834 -28.012200   6.841670 -12.621900 -23.538900  -0.006372   0.000388 -16.477200  -0.004390  -0.000293 -28.275700   2.449530  -4.542960 -34.858000  -0.001922   0.009841 -23.215500  -0.001294   0.000142 -25.678300   0.732529  -1.523120 -25.688100   0.000313   0.001260 -17.108300  -0.002509  -0.004103 -27.871800   0.790306  -1.493950 -41.823200  -0.003207  -0.000586 -27.854300  -0.005563  -0.002780   6.800670   2.875610   4.409050  71.408500   7.071570  -2.810260   1.942770  -4.539440  10.502600 -18.030100 -13.673800  -1.406490 -35.319500  24.356300  63.161500  28.621000  -0.006566  -0.001761   9.310500  -0.000127  -0.009058  31.234900   3.906070   6.408100  25.734800  -0.000872   0.005480  18.014400   0.004717   0.004539  27.874300  -0.574350  -1.085880  31.237100   0.013846  -0.002353  20.803900   0.006391  -0.002419  28.200400  -2.105000  -3.918750  33.982400  -0.003682  -0.004824  22.632300  -0.000639  -0.002855  36.340800  -3.471200  -4.704920  54.725200   0.000728   0.002570  36.447000   0.009072  -0.006971   0.582171   0.280591   1.074940   0.833039   1.496580   9.652860  -5.194070  -3.954070   4.530410   0.000000   0.000000   0.000000   1.932290  -0.171251  -5.144690   0.512103   3.510220  -7.467480 -11.105300   0.102912   0.886298   0.000000   0.000000   0.000000
